<?xml version="1.0" encoding="UTF-8" standalone="no"?>
<!DOCTYPE svg PUBLIC "-//W3C//DTD SVG 1.1//EN" "http://www.w3.org/Graphics/SVG/1.1/DTD/svg11.dtd">
<svg xmlns="http://www.w3.org/2000/svg" version="1.1" viewBox="0.00 0.00 1024.00 1024.00">
<g stroke-width="2.00" fill="none" stroke-linecap="butt">
<path stroke="#878787" vector-effect="non-scaling-stroke" d="
  M 512.42 717.02
  Q 512.59 717.02 512.68 716.99
  Q 513.00 716.85 513.31 716.55
  Q 559.37 671.39 592.16 616.48
  C 631.63 550.38 648.07 472.05 637.65 395.72
  Q 630.28 341.73 606.68 291.37
  C 584.14 243.27 551.52 197.72 513.21 159.54
  Q 512.74 159.07 512.25 159.07
  Q 511.77 159.07 511.30 159.54
  C 473.01 197.74 440.42 243.31 417.91 291.43
  Q 394.34 341.80 387.00 395.79
  C 376.63 472.13 393.11 550.45 432.62 616.53
  Q 465.45 671.42 511.53 716.55
  Q 511.84 716.85 512.17 716.99
  Q 512.25 717.02 512.42 717.02"
/>
<path stroke="#878787" vector-effect="non-scaling-stroke" d="
  M 542.41 711.96
  Q 551.28 709.32 560.41 704.67
  Q 615.87 676.48 663.49 638.50
  Q 687.73 619.16 708.45 597.97
  C 746.31 559.26 777.98 511.82 795.08 461.06
  C 809.30 418.87 813.67 374.06 809.69 329.50
  Q 808.43 315.44 805.79 302.10
  A 1.69 1.68 -5.0 0 0 804.16 300.74
  Q 800.52 300.67 796.56 301.59
  Q 785.94 304.04 775.69 307.70
  C 742.72 319.46 711.78 335.41 684.12 356.86
  Q 669.73 368.02 658.14 381.64
  Q 656.04 384.10 654.69 386.66
  A 3.06 3.04 -35.6 0 0 654.37 388.54
  Q 660.82 431.74 656.52 476.02
  Q 650.64 536.48 625.24 591.00
  C 604.54 635.43 575.27 675.55 542.08 711.43
  A 0.32 0.32 0.0 0 0 542.41 711.96"
/>
<path stroke="#878787" vector-effect="non-scaling-stroke" d="
  M 481.89 710.32
  Q 452.37 678.66 428.19 642.35
  Q 398.40 597.63 382.41 546.14
  Q 358.68 469.71 370.12 388.99
  Q 370.40 387.00 369.27 385.48
  Q 361.75 375.41 351.33 366.39
  C 326.49 344.87 298.39 328.44 267.80 315.45
  Q 249.61 307.73 231.31 302.94
  C 227.14 301.85 223.24 301.10 219.39 301.03
  Q 217.78 301.00 217.25 303.93
  C 213.04 327.63 211.97 353.39 213.20 378.39
  C 215.77 430.71 231.32 481.36 259.23 525.57
  C 277.48 554.49 299.76 581.48 324.67 605.09
  Q 385.66 662.95 460.36 701.69
  Q 470.63 707.01 481.46 710.98
  A 0.41 0.40 78.4 0 0 481.89 710.32"
/>
<path stroke="#878787" vector-effect="non-scaling-stroke" d="
  M 557.65 720.53
  Q 557.07 720.74 557.37 721.31
  Q 557.52 721.61 557.81 721.69
  C 585.50 728.81 614.44 731.06 642.91 729.29
  Q 709.33 725.14 770.59 696.86
  Q 822.95 672.68 862.82 632.10
  Q 904.23 589.95 925.15 534.51
  C 928.35 526.02 930.50 519.78 933.08 509.81
  Q 933.86 506.81 933.91 503.95
  A 2.55 2.54 8.0 0 0 932.01 501.44
  Q 926.86 500.09 921.75 499.75
  Q 909.74 498.97 904.00 499.23
  C 883.02 500.15 862.41 502.48 842.30 507.55
  Q 794.92 519.49 765.34 557.81
  Q 754.93 571.30 745.93 582.18
  Q 730.59 600.73 708.42 621.18
  Q 646.44 678.34 571.02 714.75
  Q 563.50 718.38 557.65 720.53"
/>
<path stroke="#878787" vector-effect="non-scaling-stroke" d="
  M 469.16 720.14
  C 439.29 707.97 410.91 691.58 383.74 673.52
  Q 335.32 641.32 295.34 598.10
  C 281.43 583.06 272.00 569.36 260.07 554.47
  Q 238.85 527.97 208.18 515.66
  C 187.79 507.48 165.42 503.59 143.51 502.01
  Q 126.85 500.80 105.61 503.35
  C 103.61 503.59 100.01 504.57 98.43 505.54
  A 3.23 3.21 72.6 0 0 96.90 508.49
  Q 97.15 512.43 98.34 516.61
  C 120.13 592.92 178.05 655.11 248.82 690.13
  Q 299.26 715.10 353.27 724.49
  Q 376.79 728.58 398.58 729.08
  Q 420.11 729.58 444.00 726.27
  Q 456.50 724.54 469.12 720.81
  A 0.36 0.35 -41.9 0 0 469.16 720.14"
/>
<path stroke="#878787" vector-effect="non-scaling-stroke" d="
  M 519.49 727.57
  C 521.11 735.59 525.61 743.37 530.71 750.07
  Q 546.56 770.90 568.40 787.73
  Q 594.92 808.17 627.55 814.41
  Q 639.34 816.66 655.06 816.19
  C 658.11 816.10 664.75 815.65 667.66 813.67
  A 3.29 3.28 69.6 0 0 669.06 810.59
  C 667.84 799.89 660.82 788.32 653.96 779.21
  C 641.84 763.06 626.28 754.21 606.40 749.13
  Q 595.89 746.44 573.68 742.12
  C 554.29 738.35 537.37 734.00 520.20 726.98
  A 0.52 0.52 0.0 0 0 519.49 727.57"
/>
<path stroke="#878787" vector-effect="non-scaling-stroke" d="
  M 504.94 727.81
  A 0.52 0.52 0.0 0 0 504.23 727.22
  C 486.98 734.29 469.97 738.68 450.49 742.48
  Q 428.17 746.84 417.61 749.55
  C 397.63 754.68 382.00 763.58 369.83 779.82
  C 362.95 788.99 355.90 800.62 354.68 811.38
  A 3.31 3.30 -69.6 0 0 356.09 814.47
  C 359.02 816.46 365.69 816.90 368.76 816.99
  Q 384.56 817.45 396.41 815.18
  Q 429.20 808.88 455.83 788.32
  Q 477.77 771.39 493.68 750.44
  C 498.80 743.70 503.32 735.88 504.94 727.81"
/>
</g>
<path fill="#fcfcfc" d="
  M 1024.00 0.00
  L 1024.00 1024.00
  L 0.00 1024.00
  L 0.00 0.00
  L 1024.00 0.00
  Z
  M 512.42 717.02
  Q 512.59 717.02 512.68 716.99
  Q 513.00 716.85 513.31 716.55
  Q 559.37 671.39 592.16 616.48
  C 631.63 550.38 648.07 472.05 637.65 395.72
  Q 630.28 341.73 606.68 291.37
  C 584.14 243.27 551.52 197.72 513.21 159.54
  Q 512.74 159.07 512.25 159.07
  Q 511.77 159.07 511.30 159.54
  C 473.01 197.74 440.42 243.31 417.91 291.43
  Q 394.34 341.80 387.00 395.79
  C 376.63 472.13 393.11 550.45 432.62 616.53
  Q 465.45 671.42 511.53 716.55
  Q 511.84 716.85 512.17 716.99
  Q 512.25 717.02 512.42 717.02
  Z
  M 542.41 711.96
  Q 551.28 709.32 560.41 704.67
  Q 615.87 676.48 663.49 638.50
  Q 687.73 619.16 708.45 597.97
  C 746.31 559.26 777.98 511.82 795.08 461.06
  C 809.30 418.87 813.67 374.06 809.69 329.50
  Q 808.43 315.44 805.79 302.10
  A 1.69 1.68 -5.0 0 0 804.16 300.74
  Q 800.52 300.67 796.56 301.59
  Q 785.94 304.04 775.69 307.70
  C 742.72 319.46 711.78 335.41 684.12 356.86
  Q 669.73 368.02 658.14 381.64
  Q 656.04 384.10 654.69 386.66
  A 3.06 3.04 -35.6 0 0 654.37 388.54
  Q 660.82 431.74 656.52 476.02
  Q 650.64 536.48 625.24 591.00
  C 604.54 635.43 575.27 675.55 542.08 711.43
  A 0.32 0.32 0.0 0 0 542.41 711.96
  Z
  M 481.89 710.32
  Q 452.37 678.66 428.19 642.35
  Q 398.40 597.63 382.41 546.14
  Q 358.68 469.71 370.12 388.99
  Q 370.40 387.00 369.27 385.48
  Q 361.75 375.41 351.33 366.39
  C 326.49 344.87 298.39 328.44 267.80 315.45
  Q 249.61 307.73 231.31 302.94
  C 227.14 301.85 223.24 301.10 219.39 301.03
  Q 217.78 301.00 217.25 303.93
  C 213.04 327.63 211.97 353.39 213.20 378.39
  C 215.77 430.71 231.32 481.36 259.23 525.57
  C 277.48 554.49 299.76 581.48 324.67 605.09
  Q 385.66 662.95 460.36 701.69
  Q 470.63 707.01 481.46 710.98
  A 0.41 0.40 78.4 0 0 481.89 710.32
  Z
  M 557.65 720.53
  Q 557.07 720.74 557.37 721.31
  Q 557.52 721.61 557.81 721.69
  C 585.50 728.81 614.44 731.06 642.91 729.29
  Q 709.33 725.14 770.59 696.86
  Q 822.95 672.68 862.82 632.10
  Q 904.23 589.95 925.15 534.51
  C 928.35 526.02 930.50 519.78 933.08 509.81
  Q 933.86 506.81 933.91 503.95
  A 2.55 2.54 8.0 0 0 932.01 501.44
  Q 926.86 500.09 921.75 499.75
  Q 909.74 498.97 904.00 499.23
  C 883.02 500.15 862.41 502.48 842.30 507.55
  Q 794.92 519.49 765.34 557.81
  Q 754.93 571.30 745.93 582.18
  Q 730.59 600.73 708.42 621.18
  Q 646.44 678.34 571.02 714.75
  Q 563.50 718.38 557.65 720.53
  Z
  M 469.16 720.14
  C 439.29 707.97 410.91 691.58 383.74 673.52
  Q 335.32 641.32 295.34 598.10
  C 281.43 583.06 272.00 569.36 260.07 554.47
  Q 238.85 527.97 208.18 515.66
  C 187.79 507.48 165.42 503.59 143.51 502.01
  Q 126.85 500.80 105.61 503.35
  C 103.61 503.59 100.01 504.57 98.43 505.54
  A 3.23 3.21 72.6 0 0 96.90 508.49
  Q 97.15 512.43 98.34 516.61
  C 120.13 592.92 178.05 655.11 248.82 690.13
  Q 299.26 715.10 353.27 724.49
  Q 376.79 728.58 398.58 729.08
  Q 420.11 729.58 444.00 726.27
  Q 456.50 724.54 469.12 720.81
  A 0.36 0.35 -41.9 0 0 469.16 720.14
  Z
  M 519.49 727.57
  C 521.11 735.59 525.61 743.37 530.71 750.07
  Q 546.56 770.90 568.40 787.73
  Q 594.92 808.17 627.55 814.41
  Q 639.34 816.66 655.06 816.19
  C 658.11 816.10 664.75 815.65 667.66 813.67
  A 3.29 3.28 69.6 0 0 669.06 810.59
  C 667.84 799.89 660.82 788.32 653.96 779.21
  C 641.84 763.06 626.28 754.21 606.40 749.13
  Q 595.89 746.44 573.68 742.12
  C 554.29 738.35 537.37 734.00 520.20 726.98
  A 0.52 0.52 0.0 0 0 519.49 727.57
  Z
  M 504.94 727.81
  A 0.52 0.52 0.0 0 0 504.23 727.22
  C 486.98 734.29 469.97 738.68 450.49 742.48
  Q 428.17 746.84 417.61 749.55
  C 397.63 754.68 382.00 763.58 369.83 779.82
  C 362.95 788.99 355.90 800.62 354.68 811.38
  A 3.31 3.30 -69.6 0 0 356.09 814.47
  C 359.02 816.46 365.69 816.90 368.76 816.99
  Q 384.56 817.45 396.41 815.18
  Q 429.20 808.88 455.83 788.32
  Q 477.77 771.39 493.68 750.44
  C 498.80 743.70 503.32 735.88 504.94 727.81
  Z"
/>
<path fill="#121212" d="
  M 512.25 159.07
  Q 512.74 159.07 513.21 159.54
  C 551.52 197.72 584.14 243.27 606.68 291.37
  Q 630.28 341.73 637.65 395.72
  C 648.07 472.05 631.63 550.38 592.16 616.48
  Q 559.37 671.39 513.31 716.55
  Q 513.00 716.85 512.68 716.99
  Q 512.59 717.02 512.42 717.02
  Q 512.25 717.02 512.17 716.99
  Q 511.84 716.85 511.53 716.55
  Q 465.45 671.42 432.62 616.53
  C 393.11 550.45 376.63 472.13 387.00 395.79
  Q 394.34 341.80 417.91 291.43
  C 440.42 243.31 473.01 197.74 511.30 159.54
  Q 511.77 159.07 512.25 159.07
  Z"
/>
<path fill="#121212" d="
  M 542.41 711.96
  A 0.32 0.32 0.0 0 1 542.08 711.43
  C 575.27 675.55 604.54 635.43 625.24 591.00
  Q 650.64 536.48 656.52 476.02
  Q 660.82 431.74 654.37 388.54
  A 3.06 3.04 -35.6 0 1 654.69 386.66
  Q 656.04 384.10 658.14 381.64
  Q 669.73 368.02 684.12 356.86
  C 711.78 335.41 742.72 319.46 775.69 307.70
  Q 785.94 304.04 796.56 301.59
  Q 800.52 300.67 804.16 300.74
  A 1.69 1.68 -5.0 0 1 805.79 302.10
  Q 808.43 315.44 809.69 329.50
  C 813.67 374.06 809.30 418.87 795.08 461.06
  C 777.98 511.82 746.31 559.26 708.45 597.97
  Q 687.73 619.16 663.49 638.50
  Q 615.87 676.48 560.41 704.67
  Q 551.28 709.32 542.41 711.96
  Z"
/>
<path fill="#121212" d="
  M 481.89 710.32
  A 0.41 0.40 78.4 0 1 481.46 710.98
  Q 470.63 707.01 460.36 701.69
  Q 385.66 662.95 324.67 605.09
  C 299.76 581.48 277.48 554.49 259.23 525.57
  C 231.32 481.36 215.77 430.71 213.20 378.39
  C 211.97 353.39 213.04 327.63 217.25 303.93
  Q 217.78 301.00 219.39 301.03
  C 223.24 301.10 227.14 301.85 231.31 302.94
  Q 249.61 307.73 267.80 315.45
  C 298.39 328.44 326.49 344.87 351.33 366.39
  Q 361.75 375.41 369.27 385.48
  Q 370.40 387.00 370.12 388.99
  Q 358.68 469.71 382.41 546.14
  Q 398.40 597.63 428.19 642.35
  Q 452.37 678.66 481.89 710.32
  Z"
/>
<path fill="#121212" d="
  M 557.65 720.53
  Q 563.50 718.38 571.02 714.75
  Q 646.44 678.34 708.42 621.18
  Q 730.59 600.73 745.93 582.18
  Q 754.93 571.30 765.34 557.81
  Q 794.92 519.49 842.30 507.55
  C 862.41 502.48 883.02 500.15 904.00 499.23
  Q 909.74 498.97 921.75 499.75
  Q 926.86 500.09 932.01 501.44
  A 2.55 2.54 8.0 0 1 933.91 503.95
  Q 933.86 506.81 933.08 509.81
  C 930.50 519.78 928.35 526.02 925.15 534.51
  Q 904.23 589.95 862.82 632.10
  Q 822.95 672.68 770.59 696.86
  Q 709.33 725.14 642.91 729.29
  C 614.44 731.06 585.50 728.81 557.81 721.69
  Q 557.52 721.61 557.37 721.31
  Q 557.07 720.74 557.65 720.53
  Z"
/>
<path fill="#121212" d="
  M 469.16 720.14
  A 0.36 0.35 -41.9 0 1 469.12 720.81
  Q 456.50 724.54 444.00 726.27
  Q 420.11 729.58 398.58 729.08
  Q 376.79 728.58 353.27 724.49
  Q 299.26 715.10 248.82 690.13
  C 178.05 655.11 120.13 592.92 98.34 516.61
  Q 97.15 512.43 96.90 508.49
  A 3.23 3.21 72.6 0 1 98.43 505.54
  C 100.01 504.57 103.61 503.59 105.61 503.35
  Q 126.85 500.80 143.51 502.01
  C 165.42 503.59 187.79 507.48 208.18 515.66
  Q 238.85 527.97 260.07 554.47
  C 272.00 569.36 281.43 583.06 295.34 598.10
  Q 335.32 641.32 383.74 673.52
  C 410.91 691.58 439.29 707.97 469.16 720.14
  Z"
/>
<path fill="#121212" d="
  M 519.49 727.57
  A 0.52 0.52 0.0 0 1 520.20 726.98
  C 537.37 734.00 554.29 738.35 573.68 742.12
  Q 595.89 746.44 606.40 749.13
  C 626.28 754.21 641.84 763.06 653.96 779.21
  C 660.82 788.32 667.84 799.89 669.06 810.59
  A 3.29 3.28 69.6 0 1 667.66 813.67
  C 664.75 815.65 658.11 816.10 655.06 816.19
  Q 639.34 816.66 627.55 814.41
  Q 594.92 808.17 568.40 787.73
  Q 546.56 770.90 530.71 750.07
  C 525.61 743.37 521.11 735.59 519.49 727.57
  Z"
/>
<path fill="#121212" d="
  M 504.94 727.81
  C 503.32 735.88 498.80 743.70 493.68 750.44
  Q 477.77 771.39 455.83 788.32
  Q 429.20 808.88 396.41 815.18
  Q 384.56 817.45 368.76 816.99
  C 365.69 816.90 359.02 816.46 356.09 814.47
  A 3.31 3.30 -69.6 0 1 354.68 811.38
  C 355.90 800.62 362.95 788.99 369.83 779.82
  C 382.00 763.58 397.63 754.68 417.61 749.55
  Q 428.17 746.84 450.49 742.48
  C 469.97 738.68 486.98 734.29 504.23 727.22
  A 0.52 0.52 0.0 0 1 504.94 727.81
  Z"
/>
</svg>
